<svg version="1" xmlns="http://www.w3.org/2000/svg" width="2400" height="2400" viewBox="0 0 1800.000000 1800.000000"><path d="M892.3 100.6c-12.9 3.3-22.8 14-25 27-.4 2.7-.8 40.6-.7 84.2l.1 79.3-42.1-41.9c-48-47.8-46.5-46.6-61.1-46.6-7.3 0-9.9.4-13.5 2.2-9.2 4.5-16.8 13.1-19.1 21.6-2.4 8.9-.6 20.8 4.4 28.1 1.1 1.6 31.1 32.1 66.6 67.7l64.6 64.8.1 105.5c0 58-.1 105.5-.3 105.5-.1 0-3.8-2.5-8-5.5-9.7-6.8-17.6-12.4-34.6-24.2-7.2-5.1-13.9-9.7-14.7-10.3-.8-.6-11.3-7.9-23.2-16.3-73.5-51.4-68.7-48.5-80.1-49.1-9.7-.5-19.5 4-26.7 12.1-3.3 3.7-4.9 4.8-7.8 5.1-10.6 1.1-21.7 8.9-26.7 18.8-2.6 5.3-2.9 6.9-2.9 15.4-.1 8.1.5 16.5 1.9 30.5.1 1.6.6 6.6.9 11 .4 4.4.8 9.6 1.1 11.5.2 1.9.7 6.9 1 11 .4 4.1.8 9.5 1 12 .6 6.5 1.5 16.6 2 23 .2 3 .7 8.2 1 11.5.9 9.6 1.5 15.6 2 22 1 12.8 1.5 18.2 1.9 22.5 1.2 11.7 1.6 20 1 20-.3 0-4.7-2.4-9.8-5.4-5-3-20.3-11.9-34.1-19.8-13.7-7.9-38.9-22.5-56-32.3-17-9.8-42.5-24.5-56.5-32.6l-25.5-14.7-2.1-7.9c-4.5-16.2-7.6-27.9-7.9-29.3-.2-.8-2.6-9.8-5.4-20-2.7-10.2-7-26.2-9.5-35.5-2.5-9.4-6.2-22.9-8.1-30-7.6-28.2-12.7-47.1-13.5-50.2-3.9-15.5-18.6-26.6-34.6-25.8-16.9.7-31.2 15.1-31.8 31.8-.3 6.8.5 10.2 14.3 61.2 2.9 10.4 5.4 19.8 5.6 20.7.2.9 2.4 9.4 5 18.8 2.6 9.5 4.5 17.3 4.3 17.5-.2.1-4.3-2.2-9.3-5.1-4.9-3-9.7-5.7-10.5-6.1-.8-.3-3.1-1.6-5-2.8-1.9-1.2-6-3.5-9-5.2-4.7-2.6-79.9-46-93.1-53.7-10.1-6-16.4-8.8-20.8-9.3-6.4-.8-7.1-.8-12 .1-19.6 3.7-31.9 25.4-25 44.3 4.4 11.8 5.8 12.9 45.9 36 62 35.6 105 60.6 104.8 60.9-.4.3-50.8 14-82.8 22.4-31.4 8.3-33 8.9-39.5 15.5-6.6 6.6-9.7 13.8-9.8 22.8 0 9 1.4 14.1 5.5 19.9 4.3 6 8.4 9.3 15.1 12.3 9.1 4 17.3 3.1 46.2-4.9 13.2-3.6 30.8-8.4 39-10.6 8.3-2.2 31.9-8.5 52.5-14.1 20.6-5.5 38.2-10.2 39-10.4.8-.2 5.4-1.4 10.1-2.6l8.5-2.3 12 6.8c11.7 6.8 50.9 29.4 87.9 50.9 10.5 6 21 12.1 23.5 13.5 2.5 1.4 15.8 9 29.5 17 13.8 8 26 15 27.2 15.6 1.3.6 2.3 1.4 2.3 1.7 0 .3-5.3 2.9-11.7 5.9-6.5 2.9-17 7.8-23.3 10.8-6.3 3-17.6 8.3-25 11.7-7.4 3.5-17.5 8.2-22.5 10.5-4.9 2.3-15.1 7-22.5 10.5-7.4 3.4-17.5 8.2-22.5 10.5-4.9 2.3-12.8 6-17.5 8.2-14.9 7-16.7 8-20.2 11.2-10.5 9.4-14 24.3-8.8 37.5 1.9 5 1.9 5-.1 9.5-3.6 8.2-3 19.7 1.5 28.5 1 1.8 3.8 5.3 6.2 7.7 4.6 4.6 8.2 6.5 46.9 24.4 3.3 1.5 10.1 4.7 15 7 10 4.7 20.2 9.5 28.5 13.3 3 1.4 21 9.7 39.9 18.6 18.9 8.9 34.7 16.1 35.2 16.1 2.5 0 0 2-8.8 7-5.3 3-11.7 6.7-14.2 8.2-7.8 4.6-14.4 8.3-20.6 11.8-3.3 1.8-7.2 4.1-8.7 5.2-1.4 1-2.8 1.8-3.1 1.8-.2 0-13.6 7.6-29.7 17-16.1 9.3-29.4 17-29.5 17-.2 0-3.3 1.8-6.9 4-3.6 2.2-6.8 4-7 4-.3 0-2.5 1.3-4.9 3-2.5 1.6-4.7 3-5 3-.2 0-10 5.6-21.8 12.4l-21.3 12.3-12.6-3.4c-24.2-6.5-35.5-9.5-37-9.9-.8-.2-5.8-1.5-11-2.9s-12.9-3.5-17-4.6c-8.5-2.2-8.3-2.1-16.5-4.4-3.3-.9-10-2.7-15-4-4.9-1.3-11.7-3.1-15-4-3.3-.9-8.2-2.3-11-3-2.7-.7-8.4-2.2-12.5-3.3-29.6-8.1-31.4-8.4-37.5-7.9-28 2.6-41 35.6-22.2 56.4 6.7 7.3 9.3 8.3 64.7 22.9 5.2 1.4 12.7 3.4 16.5 4.5 3.9 1.1 7.7 2.2 8.5 2.4.8.1 3.5.8 6 1.5s5.2 1.4 6 1.6c2.3.5 20.4 5.4 21.5 5.7.5.2-1.1 1.5-3.5 2.9-2.5 1.4-12.6 7.3-22.5 13-9.9 5.8-20 11.6-22.5 13-11.7 6.7-43.6 25.1-44.5 25.8-.5.4-4.1 2.4-8 4.5-3.8 2-7.7 4.4-8.6 5.1-.8.8-1.9 1.4-2.2 1.4-.4 0-4 1.9-8 4.3-3.9 2.4-9.4 5.6-12.2 7.2-8.9 5.1-13.3 9.3-16.7 16.3-2.9 5.9-3.3 7.6-3.3 15.2 0 7.2.4 9.3 2.7 14 5.6 11.3 16.5 18.8 28.1 19.3 11.7.6 8.8 1.9 63.2-29.5 76.6-44.2 91.7-52.9 92.1-52.6.2.2-3 13-7.2 28.3-9.5 35.4-13.4 50.5-13.9 52.9-.3 1-.9 3.3-1.4 5-3.7 11.5-6.8 26.1-6.6 30.8.4 9.9 4 17.4 11.4 24.1 6.7 6 12.2 8 22.1 8.1 7.4.1 9.3-.3 14.2-2.7 6.4-3.1 13.1-9.4 15.8-14.7 1.6-3.1 3.7-10.3 10-34 1.1-4.1 3.7-14 5.9-22 2.1-8 4.2-15.9 4.6-17.5.5-1.7.9-3.2 1-3.5.9-3 14.7-54.3 15-56 .2-.8 1.7-6.5 3.4-12.5 1.7-6.1 3.3-11.9 3.6-13 .2-1.1 1.6-6.5 3-12.1l2.7-10.1 32.7-18.8c17.9-10.4 45.2-26.1 60.6-35 20.9-12 79.3-45.7 88.8-51.2.9-.6-.2 15.9-2.9 41.7-.3 3-.7 8-.9 11-.8 10-1.5 18.4-2 23-.2 2.5-.7 7.6-1 11.5-.7 8.9-1.2 15.2-2 22.9-.3 3.4-.8 8.6-1 11.8-.2 3.1-.7 8.7-1.1 12.5-.3 3.7-.7 8.4-.9 10.3-.1 1.9-.6 7.5-1.1 12.5-.5 4.9-.9 13-.9 18 0 7.8.4 9.7 2.9 14.7 4.9 10.1 17 18.7 26.6 19.1 3.4.1 4.6.7 6.3 3.2 3.3 4.7 7.7 8.3 13.7 11.2 7.3 3.5 19 3.8 26.2.5 2.7-1.1 34.5-22.9 70.9-48.4 36.4-25.5 68.9-48.2 72.3-50.4l6.2-4.1v105.6l-.1 105.6L801 1478c-67.8 67.8-68.6 68.6-70.8 78.7-.9 4.3-.8 8 .2 13.8 2.7 14.4 17.5 26.7 32 26.5 9.3-.1 9.3-.1 15.7-3.4 5.1-2.6 12.9-10 47.3-44.4l41.2-41.2-.1 79.7c0 43.9.3 81.7.7 84 1.8 10.6 9.4 20.4 19.4 25 7.9 3.6 19.8 3.6 27.4.1 9.5-4.3 17.7-14.6 19.6-24.3.4-2.1.7-39.8.7-83.7 0-43.9.2-79.8.4-79.8.3 0 18.9 18.4 41.3 40.9 46.6 46.6 47.3 47.2 61.5 47.2 6.6 0 8.9-.6 15.2-3.6 10.4-5.2 18.2-17.4 18.4-29.3.2-7.5-1.4-13-5.4-18.9-1.8-2.6-32.1-33.6-67.4-68.8l-64-64.1v-105.6c0-77 .3-105.6 1.1-105.1.6.4 7.5 5.2 15.3 10.8 7.8 5.5 28.4 19.9 45.8 32 17.4 12.1 35.4 24.7 40 28 44.5 31.8 49.4 34.5 61.3 34 9.3-.4 16.5-3.9 23.2-11.2 4-4.4 5.9-5.7 8.3-5.8 12.8-.7 26.4-12.3 29.5-25.1 1.2-5.1.8-17.2-1.3-36.9-.3-2.2-.7-7.2-.9-11-.3-3.9-.8-9.7-1.1-13-1.3-14.2-1.5-16.4-2-23-.3-3.9-.8-9-1-11.5-.3-2.5-.7-7.4-1-11-.4-3.6-.8-8.3-1-10.5-.2-2.2-.6-8.1-1-13-.4-5-.8-10.1-1.1-11.5-.2-1.4-.6-6.3-.9-11-.3-4.7-.7-9.6-1-11-.2-1.4-.7-6.3-1.1-11-.3-4.7-.8-8.8-1.1-9.3-1.1-1.8 2.2-.1 20.2 10.3 22.1 12.9 28.2 16.4 31.2 18.1 1.8 1 11.9 6.9 22.5 13s20.9 12.1 22.8 13.1c1.9 1.1 13.4 7.7 25.5 14.7 12.1 7 30.8 17.8 41.5 24l19.6 11.3 4.4 16.6c2.4 9.2 4.5 17.1 4.6 17.7.2.5 1 3.7 1.9 7 .9 3.3 2.9 10.7 4.5 16.5 1.5 5.8 6.9 25.8 11.9 44.5s9.3 34.9 9.6 36c1.6 8 10.8 39.1 12.4 42.3 3 5.8 9.7 12.1 16 15.1 7.3 3.4 20 3.6 27.1.4 9-4.1 17.7-14.1 19.5-22.4 2.2-9.9 2.2-9.8-11.4-60.2-4.5-16.4-8.3-30.8-8.5-32-.3-1.2-1.4-5.4-2.5-9.2-3.2-11.5-6.1-22.4-6.1-23.4 0-.5 12 6.1 26.8 14.6 35.5 20.7 57.9 33.6 62.2 36.1 1.9 1.1 9.1 5.2 16 9.2 6.9 4 14.1 8.1 16 9.2 1.9 1.1 6.4 3.7 10.1 5.8 10.3 6 14.5 7.4 22.6 7.4 12.8-.1 24.4-7.8 30.4-20.2 3.5-7.1 3.3-19.7-.4-27.3-4-8.3-8.8-12.5-25.3-22-8.2-4.7-32.4-18.7-53.9-31.1-21.4-12.4-41-23.7-43.5-25.2-2.5-1.4-9.5-5.4-15.7-8.8-6.2-3.5-11.3-6.5-11.3-6.8 0-.3 3.7-1.5 8.3-2.7 4.5-1.3 16.7-4.6 27.1-7.4 10.4-2.8 19.6-5.2 20.5-5.4 6.3-1.4 51.5-13.9 55.1-15.2 4.8-1.8 4.6-1.7 10.3-6.4 7.4-6.2 11.5-16.2 11.1-26.8-.6-13.5-10.3-26.1-23.3-30.1-9-2.8-12.5-2.6-31.6 2.6-9.3 2.5-22.6 6.1-29.5 7.9-23.5 6.2-57.5 15.4-72.9 19.5-8.4 2.3-16.1 4.3-17 4.5-.9.2-7.7 2-15.1 4-7.4 2.1-16.6 4.5-20.3 5.5l-6.8 1.8-9.7-5.7c-5.3-3.2-17.8-10.4-27.7-16.1-9.9-5.7-19.1-11-20.5-11.9-1.4-.9-3.4-2.1-4.5-2.7-1.1-.6-18.2-10.4-38-21.9-19.8-11.4-37.3-21.5-39-22.5-1.6-.9-10.6-6.1-20-11.5-9.3-5.4-18.2-10.5-19.7-11.3-3.4-1.6-3.5-2.8-.6-3.8 1.2-.4 7-2.9 12.8-5.6 5.8-2.8 20.2-9.5 32-15s26.6-12.4 32.9-15.4c6.2-3 11.5-5.4 11.7-5.4.2 0 7.4-3.4 16-7.5s15.8-7.5 15.9-7.5c.3 0 16-7.3 30.1-14 11.3-5.4 17.6-11.8 21-21.2 2.2-6.2 2-16.1-.5-22.9-2.1-5.6-2.1-5.6-.2-10.2 3.9-9 2.9-21.2-2.2-29.4-4.7-7.4-8.9-10.5-25.5-18.4-8.9-4.4-16.4-7.9-16.6-7.9-.2 0-7-3.1-15-7-8.1-3.9-14.9-7-15-7-.2 0-5.5-2.4-11.7-5.4-6.3-2.9-13.4-6.3-15.9-7.4-2.5-1.1-10.1-4.7-17-7.9-6.9-3.3-22.1-10.4-33.7-15.8-11.7-5.4-21.3-10.1-21.3-10.4 0-.3 4.4-3 9.8-6 5.3-3 25-14.3 43.7-25.1 18.7-10.8 49.1-28.4 67.5-39 18.4-10.6 39.8-23 47.5-27.5l14-8.1 4.5 1.4c2.5.7 8.6 2.4 13.5 3.6 5 1.3 14 3.7 20 5.4 11.9 3.2 34.1 9.1 36.5 9.7 1.5.4 15.8 4.3 35.5 9.5 6.1 1.7 12.6 3.5 14.5 4 3.7 1.1 36.5 9.9 39 10.5.8.1 4.4 1.1 8 2 14.2 3.7 25.5.9 34.7-8.7 15-15.6 12.4-40.3-5.6-51.7-3.9-2.5-14.8-6.4-21.3-7.6-1.1-.2-2.8-.7-3.8-1-1-.3-2.7-.8-3.7-1-1-.2-7-1.8-13.3-3.5-6.3-1.8-12.2-3.3-13-3.5-.8-.2-5.5-1.4-10.5-2.8-8.5-2.4-21.8-6-41.8-11.2-4.9-1.3-9.1-2.5-9.3-2.8-.4-.4 3.7-3 13.1-8.1 1.1-.7 3.9-2.4 6.2-3.9 2.4-1.5 4.5-2.7 4.7-2.7.3 0 2.9-1.4 5.8-3.2 5-2.9 18.7-10.9 28.7-16.6 2.5-1.3 6.8-3.8 9.5-5.5 2.8-1.6 7.1-4.1 9.6-5.5 2.5-1.4 14.2-8.2 26-15 11.8-6.9 23.5-13.6 26-15 11.9-6.6 16.2-10.8 20.1-19.6 9.5-21.7-7-46.8-30.7-46.8-6.8 0-11.1 1.1-17.6 4.6-4.9 2.6-31.5 18.1-33.8 19.6-.8.6-2.2 1.3-3 1.7-.8.3-4.6 2.5-8.5 4.8-3.8 2.3-14.9 8.7-24.5 14.2-9.6 5.6-28.5 16.4-41.9 24.2-13.4 7.8-24.6 14.1-24.8 14.1-.2 0-.1-.6.4-1.3.4-.6.8-1.7.9-2.2.1-.6.7-3 1.4-5.5s1.3-5.2 1.5-6c.2-.8 1.7-6.6 3.5-12.9 1.7-6.2 3.3-12 3.5-13 .4-1.6 5.8-21.7 11.6-43.1 1.7-6.3 3.2-12.2 3.4-13 .3-.8 1.2-4.2 2.1-7.5 2-7.6 2.3-15.8.8-21.2-4.6-15.5-17.9-25.2-33.9-24.7-12.2.5-23.1 7.2-28.6 17.7-1.5 2.8-12.9 42.9-15.4 53.7-.1.8-1.4 5.8-2.8 11-1.5 5.2-5.5 20.5-9.1 34-3.6 13.5-7 25.8-7.5 27.5-.6 1.6-1.2 4.1-1.5 5.5-.3 1.4-2.3 9.2-4.6 17.5-2.2 8.2-5 18.7-6.2 23.1-1.5 5.5-2.9 8.6-4.2 9.4-1.2.8-6.4 3.8-11.6 6.8-20.3 11.8-73.7 42.6-76.5 44.2-19.1 10.9-83.1 47.9-86.8 50.1-4.7 2.8-7.3 3.7-6.4 2.1.3-.4.8-3.9 1.1-7.7.4-3.9.9-9 1.1-11.5.2-2.5.7-7.9 1-12 .4-4.1.8-9.1 1-11 .2-1.9.6-7.1 1-11.5.3-4.4.8-9.8 1-12 .2-2.2.7-7.4 1-11.5.3-4.1.8-9.8 1.1-12.5.6-5.5.9-8.8 1.8-22 .4-5 .9-10.1 1.1-11.5.2-1.4.7-6.6 1.1-11.5.3-5 .8-10.1.9-11.5 1.1-8.6 1.9-21.6 1.9-28.5 0-10.3-3.2-17.9-10.5-24.7-5.4-5-14.2-9.1-19.5-9-2.5.1-3.9-.8-7.7-5.3-8.4-9.7-21-13.9-33.1-11-6.5 1.5-7.6 2.1-23.1 13-7.1 5-16.6 11.6-21 14.7-4.4 3-24.4 17-44.5 31.1-20.1 14-39.6 27.7-43.4 30.4-3.9 2.6-10.3 7.2-14.4 10-4 2.9-7.5 5.3-7.6 5.3-.2 0-.3-47.5-.3-105.5V386.9l65.2-65.2c50.2-50.2 65.8-66.4 67.8-70.3 4.3-8.6 5.1-16.3 2.3-25.4-4.5-15-19.3-25-35.1-23.7-11.8.9-13.1 1.9-58.6 47.3l-41.6 41.6v-80.4c0-44.3-.3-82-.7-84-1.7-9-8.6-18.3-17.3-23.3-7-3.9-15.9-5-24-2.9zm197.4 472.1c-.3.5-.8 4.4-1.1 8.8-.3 4.5-.8 10.1-1.1 12.5-.2 2.5-.7 7.6-1 11.5-.3 3.8-.7 9.2-1 12-1 10.5-1.5 16.2-2 23-.3 3.8-.8 8.6-1 10.5-.3 1.9-.7 7.3-1.1 12-.3 4.7-.7 10.1-.9 12-.2 1.9-.7 6.9-1 11-.6 7.9-1.1 12.9-2 22-.3 3-.7 8.6-1 12.5-.3 3.8-.7 8.8-1 11-.2 2.2-.7 7.6-1 12-.8 11.1-1.6 16.9-2.3 17.7-.4.3-6.3 3.9-13.2 7.8-6.9 4-15.4 8.9-19 11-15.6 9.1-83.9 48.5-88 50.8-2.5 1.4-4.9 2.8-5.5 3.2-.5.4-3.5 2.1-6.6 3.8l-5.6 3.2.1-80.2.1-80.2 51.5-36.1c90.8-63.6 103.5-72.5 103.8-72.5.2 0 .1.3-.1.7zm-361.5 11.1c8.4 6 19.2 13.5 23.9 16.8 9.9 6.8 87.7 61.2 103.7 72.5l10.7 7.5.1 80.2c0 44.1 0 80.2-.1 80.2s-9.6-5.4-21.1-12.1c-11.5-6.6-37.8-21.8-58.4-33.6-20.6-11.9-39.1-22.6-41-23.8-1.9-1.2-6.5-3.9-10.2-5.9-3.7-2-6.9-4-7.2-4.4-.6-1-1.4-7-2.1-16.7-.4-4.4-.8-9.4-1-11-.4-3.9-1.3-15.2-2-24-.3-3.9-.8-9-1-11.5-.3-2.5-.7-7.4-1-11-.3-3.6-.8-8.8-1.1-11.5-.9-10.1-1.5-17.1-1.9-23-.9-11.7-1.7-20.6-3-33.3-.2-2.6-.7-7.9-1-11.7-1.8-23.6-2.5-30.9-3.1-32.8-.3-.9-.1-1.7.5-1.7s7.9 4.9 16.3 10.8zm-10.9 249.1c11.5 6.7 21 12.1 21.2 12.1.2 0 3.3 1.8 7 4.1 3.7 2.2 8.3 4.9 10.1 6 8.3 4.7 10.5 5.9 18.5 10.4 4.6 2.7 9.5 5.5 10.9 6.4 1.4.8 12.3 7.2 24.3 14.1 12 6.9 21.8 12.9 21.9 13.5.1.5-12.2 8.1-27.3 16.8-15.1 8.7-45.8 26.5-68.4 39.5-22.5 13-41.5 23.6-42.3 23.4-.7-.2-6.1-2.6-12-5.3-5.9-2.8-22.8-10.7-37.7-17.6-14.8-6.9-33-15.4-40.4-18.9-7.3-3.5-13.5-6.4-13.7-6.4-.2 0-6.5-2.9-14-6.5s-13.8-6.5-13.9-6.5c-.2 0-5.7-2.5-12.2-5.6-6.5-3.1-15.1-7.1-19.1-9-4-1.9-7-3.8-6.7-4.4.3-.5 1-1 1.5-1 .6 0 5.6-2.2 11.2-4.9 5.7-2.7 13-6.1 16.3-7.6 3.3-1.5 11.1-5.2 17.3-8.1 6.3-3 11.5-5.4 11.7-5.4.2 0 6.4-2.9 13.7-6.4 7.3-3.5 16.5-7.8 20.3-9.6 3.9-1.8 10.4-4.8 14.5-6.7 16.3-7.6 25.2-11.8 42-19.6 9.6-4.4 18.4-8.7 19.4-9.3 1.2-.8 2.5-1 3.5-.5.9.5 11 6.3 22.4 13zm412.7-2.6c4.7 2.1 14.1 6.5 21 9.7 6.9 3.1 16.3 7.6 21 9.8 10.3 4.9 24.4 11.5 32.5 15.2 3.3 1.5 9.5 4.4 13.8 6.4 15 7 22.8 10.6 30.5 14.2 4.2 2 11.9 5.6 17 8 5.1 2.4 9.7 4.4 10.2 4.4s1.2.5 1.5 1c.4.6-2.2 2.3-5.7 3.9s-11.2 5.2-17.3 8.1c-6 2.8-13 6.1-15.5 7.2-2.5 1.1-7.9 3.6-12 5.5-4.1 2-10.6 5-14.5 6.8-3.8 1.8-20.7 9.7-37.5 17.5-16.8 7.8-33.6 15.7-37.5 17.5-3.8 1.8-12.3 5.8-18.8 8.8l-11.7 5.6-25.3-14.6c-13.8-8-26.8-15.4-28.7-16.5-1.9-1.1-9.1-5.3-16-9.3-6.9-4-14.1-8.2-16-9.2-1.9-1.1-9.1-5.3-16-9.3-6.9-4-18-10.4-24.8-14.2l-12.2-7.1 7.7-4.4c4.3-2.5 10.3-6 13.3-7.8 3-1.8 7.1-4.2 9-5.2 4-2.3 34.7-20 37-21.4.8-.5 9.4-5.4 19-10.9s18.2-10.4 19-10.9c3.1-2 23.6-13.7 28.9-16.6l5.6-3 7 3.4c3.8 1.8 10.8 5.2 15.5 7.4zm-263.4 208v80.3l-5 3.5c-2.8 1.9-5.5 3.8-6.1 4.2-.5.5-18.3 12.9-39.5 27.7-21.2 14.8-42.5 29.7-47.4 33.2-5 3.5-12.6 8.8-17 11.9-19 13.1-34.3 23.8-36.8 25.8-3.2 2.6-3.8 2.6-3.4.3.3-1.5 1.6-14.3 2.1-21.2.6-7.8 1.7-20.9 2-23.5.1-1.7.6-6.6 1-11s.8-9.6 1-11.5c.5-4.6 1.7-18.6 2-23 .4-5.4 1.5-18 2-23 .3-2.5.7-7.9 1-12 .6-7.7 1.1-13.6 2-22.8.3-2.8.7-7.6 1-10.5 1.3-14.6 1.8-21.5 2-24.2.1-1.7.3-3.3.4-3.6 0-.3 3.6-2.6 7.9-5.1 4.2-2.5 9.3-5.4 11.2-6.6 1.9-1.1 6.2-3.6 9.5-5.5 14.9-8.4 28.4-16.1 32.5-18.7 2.5-1.5 6.5-3.9 9-5.3 3.9-2.1 68.4-39.4 68.6-39.6v80.2zm76.4-75.1c2.5 1.4 20.1 11.6 39.1 22.6 19 11 36.6 21.1 39 22.4 2.4 1.4 15.1 8.7 28.2 16.3 18.7 10.8 23.7 14.2 23.8 15.9.5 7 .7 9.7 1.3 15.1.3 3.3.8 8.9 1.1 12.5.3 3.6.8 8.5 1 11 .2 2.5.7 7.9 1 12 .3 4.1.7 9.1 1 11 .2 1.9.7 7.1 1 11.5.4 4.4.8 9.6 1 11.5.2 1.9.6 7.4 1 12.1.3 4.7.7 9.5.9 10.6.3 1.1.7 6 1.1 10.9.3 4.9.8 10.7 1 12.9.6 6 1.3 14.1 2 23 .4 4.4.8 9.6 1 11.5.3 1.9.7 7.1 1.1 11.5.3 4.4.8 8.3 1.1 8.7 1 1.8-1.3.4-12.4-7.5-6.5-4.5-12.8-8.9-14-9.7-1.2-.8-30.7-21.5-65.6-45.9l-63.4-44.5V958l2.1 1.3c1.1.8 4.1 2.5 6.6 3.9z"/><path d="M784.7 391.6c-.1.1-2.1.4-4.5.8-10.6 1.4-22.8 10.9-28.1 22-6 12.2-5.6 24.3 1.1 36.9 3.9 7.2 10.3 13 18.8 17 8.3 4 19.9 4.7 28.3 1.8 18-6.2 29.3-23 28-41.6-1.4-19.6-18.9-36.4-38.6-37-2.6-.1-4.8 0-5 .1zM1005.2 392.1c-10.8 2-23.2 11.2-28.1 20.7-9.8 19.3-3.1 42.8 15.3 53.6 20.5 12 46.9 3.5 56.9-18.3 5.5-11.9 4.4-27.5-2.7-38.1-5.4-8.2-15.9-15.6-24.9-17.6-4.8-1-11.6-1.1-16.5-.3zM544.8 528.5c-.2.2-1.5.6-2.9.9-5.3.9-14 5.9-19 10.8-12.8 12.6-15.5 33.1-6.5 48.2 7.8 13 19.9 20 34.6 19.9 8.6-.1 12.2-.8 18.2-3.9 16.5-8.4 25.4-27.2 21.4-45.4-1-4.2-5.8-13.6-8.9-17-7.3-8.3-17.8-13.2-28.9-13.5-4.2-.2-7.8-.2-8 0zM1239.2 529.6c-7 1.8-12.9 5.4-18.5 11.1-20.4 20.6-11.8 56.2 15.8 65.8 6.9 2.4 20.5 2.3 26.5-.1 10.1-4 17.7-10.7 22.2-19.6 9.2-17.8 4.2-38.6-12.2-50.9-9-6.8-22.4-9.3-33.8-6.3zM432.1 723.2c-7.1 1.2-16.2 6.1-21.4 11.3-16.1 16.4-15.7 41.8.9 57.5 7.4 7 14.8 10.2 24.9 10.8 24.1 1.3 42.8-16.6 42.7-40.8 0-7.7-3.7-18.2-8.4-24-8.8-11.1-25-17.3-38.7-14.8zM1354 723.4c-10.1 2.1-20.1 8.8-25.8 17.2-17 25.1.5 60.5 30.7 62.2 15.9.9 29.1-6 37.4-19.4 4-6.5 5.6-13.5 5.3-22.7-.2-6.8-.8-9.3-3.4-14.7-3.9-8.2-10.9-15.3-18.8-19.1-9-4.4-16.3-5.4-25.4-3.5zM427.5 997.9c-8.1 2.9-11.6 5-17 10.5-21.6 21.7-11.8 57.6 18.3 67 5.2 1.7 18.6.9 24.4-1.3 15.8-6.1 26.1-21.1 26-38.1-.1-16-8.8-29.2-23.9-36.3-8.4-3.9-20-4.6-27.8-1.8zM1350 997.9c-17.4 5.6-29.4 22.4-28.4 39.9.6 10.5 3.6 17.8 10.3 25.4 17.2 19.4 49.1 17.1 63.3-4.7 5.3-8.1 7.1-15 6.6-24.4-.8-13.1-7.2-24.2-18.2-31.2-7.2-4.7-10.9-5.9-20.6-6.4-5.4-.3-9.1.1-13 1.4zM541.4 1192c-8.4 2.3-14.3 6-20.3 12.7-7.2 8.1-9.5 14.4-9.6 26.3 0 8.6.3 10.1 3.1 16 3.8 8 8.3 13.3 15 17.6 15.9 10.2 36.9 7.9 50.1-5.5 21.9-22.2 12.1-58.2-18.4-67.5-4.6-1.4-14-1.3-19.9.4zM1241.3 1191.6c-14.6 3-26.2 13.8-30.7 28.7-1.4 4.6-1.5 16.4-.2 20.7 3.3 11.1 12.1 21.4 22.5 26.4 6 2.8 7.5 3.1 16.6 3.1 9.1 0 10.6-.3 16.5-3.1 15.4-7.4 24.4-22 23.6-38.2-.4-8.2-1.9-13.1-6.1-19.7-9.3-14.7-25.3-21.4-42.2-17.9zM776.6 1329c-18.5 5.8-30.6 24-28.4 42.8 1.6 13.9 10.8 26.6 23.6 32.4 5.9 2.8 7.8 3.1 16.2 3.2 8.7.1 10.1-.2 16.2-3.1 18.2-8.6 27.4-26.5 23.2-45.1-1.8-8.1-4.2-12.8-10-19.1-4.4-4.8-13.4-10.3-19.4-11.7-5.8-1.4-15.8-1.1-21.4.6zM1006.5 1327.6c-10 2.3-17.8 6.6-23.7 13.2-14.4 16-13.6 40.6 1.9 55.3 8.3 7.9 15.4 11 26.5 11.5 34.3 1.6 54.5-39.3 32.4-65.6-4.5-5.4-10.6-9.8-16.2-11.9-5.1-2-17.1-3.4-20.9-2.5z"/></svg>